# xmcd
# 
# Track frame offsets:
#     150
#     19441
#     41422
#     61396
#     82353
#     104096
#     131515
#     152503
#     174508
#     192055
# 
# Disc length: 2858
# 
# Revision: 1
# Processed by: cddbd v1.5.2PL0 Copyright (c) Steve Scherf et al.
# Submitted via: fre:ac v1.0.17
# 
DISCID=860b280a
DTITLE=Various Artist - 海洋嬉游記
DYEAR=2005
DGENRE=New Age
TTITLE0=海洋嬉游記 - 藍色洋流 The Indigo Current
TTITLE1=海洋嬉游記 - 鯨豚嬉游記 Swimming Joyfully with Whales and Dolphins
TTITLE2=海洋嬉游記 - 冬日鸕鶿之舞 Winter Dance from the tgreat Comorant
TTITLE3=海洋嬉游記 - 天地一沙鷗 Flying Seagulls across the Oceans
TTITLE4=海洋嬉游記 - 海祭 Ritual Ceremony of the Sea
TTITLE5=海洋嬉游記 - 青春木麻黃 The Young Hosetail Tree
TTITLE6=海洋嬉游記 - 滄海 Immense Ocean
TTITLE7=海洋嬉游記 - 月光漫游 Wandering off under the Moonlight
TTITLE8=海洋嬉游記 - 黑面琵鷺之歌 Song of the Black-faced Spoonbills
TTITLE9=海洋嬉游記 - 珊瑚之舞 Coral Dance
EXTD=YEAR: 2005
EXTT0=
EXTT1=
EXTT2=
EXTT3=
EXTT4=
EXTT5=
EXTT6=
EXTT7=
EXTT8=
EXTT9=
PLAYORDER=
